<?xml version="1.0" standalone="no"?>
<!DOCTYPE svg PUBLIC "-//W3C//DTD SVG 20010904//EN"
 "http://www.w3.org/TR/2001/REC-SVG-20010904/DTD/svg10.dtd">
<svg version="1.0" xmlns="http://www.w3.org/2000/svg"
 width="250.000000pt" height="100.000000pt" viewBox="0 0 250.000000 100.000000"
 preserveAspectRatio="xMidYMid meet">

<g transform="translate(0.000000,100.000000) scale(0.100000,-0.100000)"
fill="#000000" stroke="none">
<path d="M0 500 l0 -500 1250 0 1250 0 0 500 0 500 -1250 0 -1250 0 0 -500z
m859 286 c17 -17 31 -36 31 -43 0 -20 -37 -16 -60 7 -19 19 -33 20 -229 20
-191 0 -211 -2 -232 -19 -24 -19 -24 -20 -24 -251 0 -232 0 -232 24 -251 21
-17 41 -19 230 -19 220 0 251 6 251 51 0 14 7 19 26 19 23 0 25 -3 19 -27 -3
-16 -20 -41 -36 -58 l-29 -30 -230 0 -230 0 -32 33 -33 32 -3 244 -3 243 27
33 c15 17 37 36 48 41 12 4 119 7 238 6 l217 -2 30 -29z m-296 -113 c-28 -5
-32 -42 -5 -44 16 -1 16 -2 0 -6 -12 -3 -18 -14 -18 -34 0 -22 -5 -29 -20 -29
-18 0 -20 7 -20 60 l0 60 43 -1 c23 -1 32 -4 20 -6z m57 -53 c0 -47 -3 -60
-15 -60 -12 0 -15 13 -15 60 0 47 3 60 15 60 12 0 15 -13 15 -60z m350 42 c0
-13 8 -18 27 -17 22 0 29 -5 33 -27 l5 -27 25 19 c14 10 21 22 17 27 -5 4 -12
1 -17 -7 -5 -8 -12 -11 -16 -7 -13 13 13 29 42 25 26 -3 29 -8 32 -40 4 -51
22 -49 22 2 0 38 2 40 30 40 17 0 42 7 55 16 20 13 25 14 26 3 0 -8 1 -36 2
-62 3 -43 1 -48 -18 -45 -13 2 -21 12 -23 29 -2 17 -11 29 -23 32 -16 4 -19 0
-19 -29 l0 -34 -65 0 c-45 0 -65 4 -66 13 0 10 -2 10 -6 0 -2 -7 -13 -13 -24
-13 -15 0 -19 7 -19 38 0 27 -3 33 -10 22 -5 -8 -10 -25 -10 -37 0 -14 -6 -23
-15 -23 -12 0 -15 13 -15 60 0 47 3 60 15 60 8 0 15 -8 15 -18z m-262 -24 c28
-28 7 -78 -33 -78 -27 0 -45 18 -45 45 0 27 18 45 45 45 12 0 26 -5 33 -12z
m60 -10 l11 -23 0 23 c1 24 31 32 31 7 0 -8 5 -15 10 -15 6 0 10 7 10 15 0 8
4 15 9 15 6 0 3 -20 -6 -45 -15 -45 -42 -61 -44 -27 -1 16 -2 16 -6 0 -8 -32
-31 -19 -46 27 -15 42 -15 45 2 45 10 0 23 -10 29 -22z m157 11 c4 -6 4 -13 0
-17 -3 -3 -10 0 -15 8 -12 19 -22 7 -22 -25 0 -35 9 -42 28 -19 15 19 15 19
12 -1 -3 -16 -11 -20 -38 -20 -31 0 -35 3 -38 28 -2 16 2 35 9 43 13 16 55 19
64 3z m-337 -191 c2 -10 -1 -18 -7 -18 -6 0 -11 7 -11 15 0 24 -28 17 -32 -7
-5 -35 3 -78 14 -78 6 0 8 11 6 25 -4 21 -1 25 18 25 20 0 24 -5 24 -30 0 -28
-2 -30 -40 -30 -63 0 -88 57 -47 108 15 19 71 11 75 -10z m526 -10 c8 -5 7 -8
-1 -8 -8 0 -13 -14 -13 -36 0 -21 4 -33 10 -29 6 3 10 16 10 29 0 28 18 46 45
46 40 0 61 -50 33 -78 -15 -15 -50 -16 -65 -1 -8 8 -13 8 -17 0 -4 -6 -16 -11
-27 -11 -14 0 -19 7 -19 29 0 16 -3 36 -6 44 -3 8 3 22 12 32 15 14 19 15 23
4 2 -8 9 -17 15 -21z m-436 -10 c20 -20 14 -38 -13 -38 -26 0 -33 -14 -14 -26
6 -3 15 0 20 7 4 7 11 10 15 6 13 -13 -13 -29 -42 -25 -23 2 -30 9 -32 31 -6
47 36 75 66 45z m110 -35 c3 -38 1 -43 -17 -43 -17 0 -21 7 -23 38 l-1 37 -4
-37 c-3 -30 -9 -38 -24 -38 -16 0 -19 7 -19 46 l0 45 43 -3 c42 -3 42 -3 45
-45z m86 31 c10 -26 7 -34 -14 -34 -11 0 -20 -7 -20 -15 0 -18 12 -19 28 -3 9
9 12 9 12 0 0 -17 -25 -25 -55 -18 -19 5 -25 13 -25 34 0 15 5 33 12 40 17 17
55 15 62 -4z m86 1 c0 -8 -7 -15 -15 -15 -10 0 -15 -10 -15 -30 0 -23 -4 -30
-20 -30 -17 0 -20 7 -20 45 0 45 0 45 35 45 24 0 35 -5 35 -15z m91 -33 l5
-43 -45 3 c-38 2 -46 6 -46 23 0 29 32 32 38 3 2 -13 4 -6 4 15 0 36 -11 50
-20 25 -2 -7 -8 -10 -12 -6 -15 14 8 29 38 26 29 -3 32 -7 38 -46z m239 33 c0
-8 -7 -15 -15 -15 -10 0 -15 -10 -15 -30 0 -23 -4 -30 -20 -30 -17 0 -20 7
-20 45 0 45 0 45 35 45 24 0 35 -5 35 -15z"/>
<path d="M1071 584 c0 -11 3 -14 6 -6 3 7 2 16 -1 19 -3 4 -6 -2 -5 -13z"/>
<path d="M673 605 c0 -22 2 -30 4 -17 2 12 2 30 0 40 -3 9 -5 -1 -4 -23z"/>
<path d="M1157 408 c-3 -12 -2 -29 3 -37 7 -12 9 -6 10 22 0 42 -5 48 -13 15z"/>
<path d="M640 410 c0 -5 5 -10 10 -10 6 0 10 5 10 10 0 6 -4 10 -10 10 -5 0
-10 -4 -10 -10z"/>
<path d="M841 414 c0 -11 3 -14 6 -6 3 7 2 16 -1 19 -3 4 -6 -2 -5 -13z"/>
</g>
</svg>
